<svg width="80" height="80" viewBox="0 0 80 80" fill="none" xmlns="http://www.w3.org/2000/svg">
<circle cx="40" cy="40" r="40" fill="#E31837"/>
<g clip-path="url(#clip0_1178_4297)">
<path d="M56.3363 42.3135C55.1089 41.051 53.0824 41.0268 51.826 42.2651L47.8453 46.1736C47.5998 44.8095 46.4108 43.7744 44.986 43.7744H39.7489C38.5311 42.865 37.27 42.4199 36.004 42.4538C34.6755 42.4876 33.3277 43.0391 31.9991 44.1033C31.9895 44.113 31.9799 44.1226 31.9703 44.1275L28.6586 47.1556L27.4937 45.985C27.383 45.8737 27.2338 45.8108 27.0749 45.8108C26.9161 45.8108 26.7668 45.8737 26.6561 45.985L22.2421 50.4256C22.1314 50.5369 22.0688 50.6868 22.0688 50.8464C22.0688 51.0061 22.1314 51.156 22.2421 51.2673L32.8223 61.8996C32.9378 62.0157 33.087 62.0737 33.241 62.0737C33.3951 62.0737 33.5443 62.0157 33.6598 61.8996L38.0786 57.459C38.1893 57.3477 38.2519 57.1978 38.2519 57.0381C38.2519 56.8785 38.1893 56.7285 38.0786 56.6173L36.6875 55.2193L37.6358 54.2664H47.0655C48.1774 54.2615 49.1449 53.8649 49.944 53.0812L56.2882 46.8412C57.5445 45.6077 57.5686 43.576 56.3411 42.3135H56.3363ZM33.241 60.6371L23.4985 50.8464L27.0797 47.2475L36.8223 57.0381L33.241 60.6371ZM55.4603 45.9947L49.116 52.2347C48.5384 52.8007 47.8693 53.0764 47.0655 53.0764H37.3903C37.2363 53.0812 37.0822 53.1441 36.9715 53.2554L35.8452 54.3825L29.4961 48.0021L32.7501 45.0224C34.9739 43.2519 37.0822 43.1939 39.1905 44.8386C39.2916 44.9208 39.4216 44.9643 39.5516 44.9643H44.9908C45.9391 44.9643 46.7141 45.7431 46.7141 46.6961C46.7141 46.7493 46.7141 46.7976 46.7045 46.846V46.8992C46.6948 46.9331 46.69 46.967 46.6852 47.0008C46.6756 47.0443 46.6708 47.083 46.6611 47.1217C46.6611 47.1314 46.6611 47.1363 46.6563 47.1459C46.6178 47.2862 46.5601 47.4217 46.4879 47.5523C46.4879 47.5571 46.483 47.5619 46.4782 47.5716C46.1798 48.0844 45.6262 48.4326 44.9908 48.4326H37.3903C37.063 48.4326 36.7982 48.6987 36.7982 49.0276C36.7982 49.3566 37.063 49.6226 37.3903 49.6226H44.9957C46.0498 49.6226 46.974 49.0566 47.4842 48.215L52.6636 43.1262C53.453 42.3474 54.7286 42.3667 55.4988 43.16C56.2689 43.9533 56.2545 45.2304 55.4651 46.0092L55.4603 45.9947ZM28.9907 39.9191H47.1136C48.0811 40.7414 49.2893 41.1671 50.5071 41.1671C51.725 41.1671 52.8995 40.7607 53.8814 39.9287C56.0908 38.0567 56.3652 34.7287 54.5072 32.5132C53.6696 31.5167 52.5433 30.9121 51.3543 30.7186V22.9209C51.3543 22.592 51.0896 22.3259 50.7623 22.3259H46.1894V20.2121C46.1894 19.3317 45.477 18.6206 44.601 18.6206H35.0798C34.2037 18.6206 33.4962 19.3365 33.4962 20.2169V22.3308H29.0003C28.673 22.3308 28.4083 22.5968 28.4083 22.9258V39.3289C28.4083 39.6579 28.673 39.9239 29.0003 39.9239L28.9907 39.9191ZM29.5828 29.1852C30.3048 29.9059 31.2964 30.351 32.3939 30.351H37.0341V32.044C37.0341 32.3729 37.2988 32.639 37.6262 32.639H42.1268C42.4541 32.639 42.7189 32.3729 42.7189 32.044V30.351H47.3591C48.4518 30.351 49.4482 29.9059 50.1702 29.1852V30.6557C49.0872 30.7234 48.0186 31.1298 47.128 31.8844C45.1016 33.6016 44.702 36.5427 46.0883 38.7291H29.5828V29.1852ZM41.5347 31.449H38.2182V28.0629H41.5347V31.449ZM53.5974 33.2775C55.0415 34.9947 54.8249 37.573 53.1161 39.0193C51.542 40.3544 49.2412 40.2722 47.7586 38.9081C47.7586 38.9081 47.749 38.8984 47.7442 38.8984C47.6238 38.7871 47.5083 38.6662 47.4024 38.5356C45.9632 36.8184 46.1798 34.245 47.8886 32.7938C48.6491 32.1504 49.5781 31.836 50.5023 31.836C51.6576 31.836 52.8032 32.3246 53.6022 33.2775H53.5974ZM34.6707 20.2121C34.6707 19.9896 34.8536 19.8057 35.075 19.8057H44.5961C44.8176 19.8057 45.0005 19.9896 45.0005 20.2121V22.3259H34.6755V20.2121H34.6707ZM29.5828 23.5159H50.1654V26.3409C50.1654 27.8985 48.9042 29.1658 47.3543 29.1658H42.714V27.4728C42.714 27.1439 42.4493 26.8778 42.122 26.8778H37.6213C37.294 26.8778 37.0293 27.1439 37.0293 27.4728V29.1658H32.389C30.8391 29.1658 29.5779 27.8985 29.5779 26.3409V23.5159H29.5828ZM49.9103 36.4749L51.9368 34.0224C52.1437 33.7709 52.5192 33.737 52.7695 33.945C53.0198 34.153 53.0535 34.5304 52.8465 34.7819L50.3627 37.781C50.252 37.9164 50.0836 37.9938 49.9055 37.9938C49.7274 37.9938 49.5637 37.9164 49.4482 37.7762L48.1485 36.204C47.9415 35.9525 47.9752 35.5752 48.2255 35.3672C48.4758 35.1592 48.8513 35.1931 49.0583 35.4446L49.9006 36.4701L49.9103 36.4749Z" fill="white" stroke="white" stroke-width="0.3"/>
</g>
<defs>
<clipPath id="clip0_1178_4297">
<rect width="35.1724" height="43.4483" fill="white" transform="translate(22.0688 18.6206)"/>
</clipPath>
</defs>
</svg>
